# xmcd CD database file
#
# Track frame offsets:
#	150
#	11851
#	26871
#	44887
#	61923
#	74444
#	90879
#	105360
#	119380
#	136495
#	155240
#	170310
#	184965
#	204888
#	223856
#	243395
#	261993
#	277484
#	301487
#	317268
#
# Disc length: 4465 seconds
#
# Revision: 1
# Processed by: cddbd v1.5.2PL0 Copyright (c) Steve Scherf et al.
# Submitted via: CDex 1.51
#
DISCID=30116f14
DTITLE=Various Artist - Solid Rock
DYEAR=2008
DGENRE=Rock
TTITLE0=The Troggs - Wild Thing
TTITLE1=Foreigner  - Cold As Ice
TTITLE2=The Tubes - She's A Beauty
TTITLE3=Asia - Heat Of The Moment
TTITLE4=Black Sabbath - Paranoid
TTITLE5=The Darkness - I Believe In A Thing Called Love
TTITLE6=Rick Springfield - Jessie's Girl
TTITLE7=Alice Cooper - No More Mr. Nice Guy
TTITLE8=Kiss - Crazy Nights
TTITLE9=Billy Idol - Mony Mony - Live
TTITLE10=The Tom Robinson Band - 2-4-6-8 Motorway
TTITLE11=Rainbow - Since You Been Gone
TTITLE12=Extreme - Get The Funk Out
TTITLE13=Gun - Word Up
TTITLE14=Robert Palmer - Addicted To Love
TTITLE15=The Beastie Boys - No Sleep Till Brooklyn
TTITLE16=Live - Selling The Drama
TTITLE17=Soundgarden - Black Hole Sun
TTITLE18=ZZ Top - Jesus Just Left Chicago
TTITLE19=Whitesnake - Here I Go Again '87
EXTD=YEAR: 2008
EXTT0=
EXTT1=
EXTT2=
EXTT3=
EXTT4=
EXTT5=
EXTT6=
EXTT7=
EXTT8=
EXTT9=
EXTT10=
EXTT11=
EXTT12=
EXTT13=
EXTT14=
EXTT15=
EXTT16=
EXTT17=
EXTT18=
EXTT19=
PLAYORDER=
